<svg width="1440" height="456" viewBox="0 0 1440 456" fill="none" xmlns="http://www.w3.org/2000/svg">
<g opacity="0.2">
<path d="M1261.03 190.391C1239.78 106.635 1032.85 54.4935 877.727 56.3921C698.962 58.5905 632.175 132.034 495.945 110.531C371.628 90.9323 363.736 19.7107 272.372 8.96734C188.406 -0.903723 56.0213 42.8879 -160.994 257.316" stroke="url(#paint0_linear_1_199)" stroke-opacity="0.65" stroke-width="4" stroke-miterlimit="10"/>
<path d="M-150.5 266.685C63.8793 55.352 196.326 9.89486 281.466 17.8488C344.568 23.7929 369.148 58.2659 418.699 85.0508C443.435 98.8427 473.802 108.89 507.075 114.291C616.064 132.032 680.608 91.1343 796.773 73.1176C826.382 68.474 856.827 65.834 887.48 65.252C1043.23 62.0031 1247.79 107.064 1272.21 187.749" stroke="url(#paint1_linear_1_199)" stroke-opacity="0.65" stroke-width="4" stroke-miterlimit="10"/>
<path d="M-139.97 276.035C71.7762 67.814 204.209 20.7071 290.347 26.7597C353.664 31.212 379.673 64.0275 429.315 89.437C454.636 102.725 484.957 112.517 517.965 118.068C625.386 136.121 689.938 99.2468 806.515 82.0384C836.14 77.6294 866.47 74.9842 897.019 74.1449C1053.42 69.8216 1255.59 107.514 1283.18 185.129" stroke="url(#paint2_linear_1_199)" stroke-opacity="0.65" stroke-width="4" stroke-miterlimit="10"/>
<path d="M-129.503 285.359C79.5608 80.2929 212.056 31.5502 299.292 35.6576C362.876 38.6467 390.213 69.7763 440.021 93.8244C465.873 106.601 496.124 116.144 528.843 121.847C634.798 140.211 699.13 107.347 816.245 90.961C845.9 86.7485 876.15 84.0825 906.622 82.9959C1063.64 77.4391 1263.43 107.923 1294.18 182.467" stroke="url(#paint3_linear_1_199)" stroke-opacity="0.65" stroke-width="4" stroke-miterlimit="10"/>
<path d="M-118.995 294.743C87.4356 92.7445 219.893 42.3956 308.302 44.5574C372.077 46.0982 400.869 75.5411 450.817 98.1846C477.219 110.456 507.454 119.761 539.938 125.612C644.428 144.288 708.614 115.449 826.318 99.8695C855.942 95.8939 886.047 93.2267 916.366 91.8917C1074.03 85.1012 1271.43 108.39 1305.38 179.863" stroke="url(#paint4_linear_1_199)" stroke-opacity="0.65" stroke-width="4" stroke-miterlimit="10"/>
<path d="M-108.618 304.102C95.2553 105.2 227.764 51.8407 317.283 53.4466C381.18 54.5526 411.493 81.2085 461.533 102.563C488.472 114.308 518.69 123.373 550.927 129.381C653.951 148.369 717.942 123.554 836.058 108.798C865.674 105.021 895.676 102.337 925.878 100.763C1084.19 92.6815 1279.21 108.819 1316.31 177.236" stroke="url(#paint5_linear_1_199)" stroke-opacity="0.65" stroke-width="4" stroke-miterlimit="10"/>
<path d="M-98.015 313.465C103.099 117.676 235.506 64.2017 326.236 62.2698C390.318 61.0881 422.168 86.9687 472.272 106.963C499.718 118.176 529.923 127.007 561.914 133.172C663.473 152.471 727.345 131.666 845.898 117.732C875.508 114.171 905.411 111.48 935.489 109.67C1094.45 100.354 1287.08 109.239 1327.35 174.628" stroke="url(#paint6_linear_1_199)" stroke-opacity="0.65" stroke-width="4" stroke-miterlimit="10"/>
<path d="M-87.5131 322.817C110.892 130.125 243.311 75.0156 335.241 71.2393C399.462 68.5517 432.918 92.5856 483.037 111.32C510.967 121.992 541.173 130.584 572.927 136.891C672.995 156.517 736.748 139.75 855.762 126.595C883.455 123.553 913.021 120.616 945.126 118.491C1104.76 107.898 1294.98 109.69 1338.41 171.98" stroke="url(#paint7_linear_1_199)" stroke-opacity="0.65" stroke-width="4" stroke-miterlimit="10"/>
<path d="M-77.0168 332.17C118.807 142.591 251.112 85.9911 344.214 80.0955C408.601 76.0321 443.687 98.2193 493.847 115.666C522.262 125.789 552.485 134.161 584.01 140.641C682.612 160.579 746.195 147.807 865.697 135.504C893.518 132.635 923.008 129.727 954.858 127.357C1114.94 115.503 1302.87 110.129 1349.47 169.333" stroke="url(#paint8_linear_1_199)" stroke-opacity="0.65" stroke-width="4" stroke-miterlimit="10"/>
<path d="M-66.4736 341.535C126.692 155.068 258.934 96.9637 353.235 89.0501C417.763 83.6256 454.605 103.907 504.551 120.081C533.415 129.651 563.651 137.807 594.938 144.462C692.1 164.711 755.538 155.964 875.501 144.411C903.323 141.715 932.839 138.808 964.434 136.207C1125.34 123.017 1310.78 110.507 1360.54 166.655" stroke="url(#paint9_linear_1_199)" stroke-opacity="0.65" stroke-width="4" stroke-miterlimit="10"/>
<path d="M-56.0378 350.885C134.469 167.516 266.674 107.936 362.097 97.9325C426.766 91.1613 465.263 109.509 515.199 124.467C544.505 133.463 574.776 141.397 605.834 148.225C701.505 168.785 764.798 164.048 885.25 153.389C913.2 150.896 942.64 147.974 973.954 145.158C1135.51 130.634 1318.53 111.016 1371.51 164.092" stroke="url(#paint10_linear_1_199)" stroke-opacity="0.65" stroke-width="4" stroke-miterlimit="10"/>
<path d="M-45.5304 360.252C142.344 179.995 274.536 118.925 371.157 106.831C435.992 98.7275 476.169 115.113 525.995 128.856C554.636 136.749 583.962 144.711 616.902 152.003C711.107 172.861 774.256 172.162 895.17 162.312C923.197 160.006 952.586 157.07 983.696 154.038C1145.9 138.179 1326.54 111.453 1382.66 161.473" stroke="url(#paint11_linear_1_199)" stroke-opacity="0.65" stroke-width="4" stroke-miterlimit="10"/>
<path d="M-35.0221 369.612C150.22 192.511 282.222 129.937 380.142 115.738C445.143 106.288 487.076 120.681 536.765 133.238C566.086 140.65 595.486 148.38 627.921 155.776C720.66 176.989 783.639 180.256 905.04 171.228C933.145 169.124 962.508 166.174 993.287 162.913C1156.11 145.69 1334.39 111.886 1393.67 158.849" stroke="url(#paint12_linear_1_199)" stroke-opacity="0.65" stroke-width="4" stroke-miterlimit="10"/>
<path d="M-24.5822 378.97C158.051 204.923 290.169 140.961 389.109 124.643C454.277 113.89 497.965 126.232 547.518 137.632C577.544 144.534 606.992 152.047 638.82 159.562C730.119 181.042 792.903 188.377 914.892 180.171C943.1 178.241 972.387 175.277 1002.91 171.814C1166.38 153.198 1342.27 112.316 1404.72 156.223" stroke="url(#paint13_linear_1_199)" stroke-opacity="0.65" stroke-width="4" stroke-miterlimit="10"/>
<path d="M-14.0153 388.314C165.909 217.381 297.939 152.016 398.102 133.535C463.462 121.464 508.879 131.743 558.246 142C588.976 148.377 618.524 155.701 649.923 163.319C739.705 185.112 802.394 196.456 924.745 189.073C954.242 187.116 983.553 184.298 1012.56 180.63C1176.62 160.694 1350.23 112.777 1415.77 153.584" stroke="url(#paint14_linear_1_199)" stroke-opacity="0.65" stroke-width="4" stroke-miterlimit="10"/>
<path d="M-3.52438 397.673C173.767 229.853 305.911 163.026 406.993 142.429C472.545 129.054 519.717 137.239 569.023 146.382C600.458 152.22 630.055 159.356 660.923 167.092C749.265 189.196 811.784 204.564 934.546 197.989C964.019 196.252 993.276 193.432 1022.13 189.548C1186.87 168.103 1358.04 113.21 1426.84 150.903" stroke="url(#paint15_linear_1_199)" stroke-opacity="0.65" stroke-width="4" stroke-miterlimit="10"/>
<path d="M6.97719 407.033C181.61 242.312 313.895 174.14 416.072 151.323C481.765 136.674 530.717 142.707 579.761 150.752C611.9 156.036 641.546 163.027 671.909 170.867C758.759 193.283 821.159 212.659 944.458 206.907C973.907 205.37 1003.11 202.534 1031.82 198.423C1197.1 175.616 1365.93 113.659 1437.9 148.339" stroke="url(#paint16_linear_1_199)" stroke-opacity="0.65" stroke-width="4" stroke-miterlimit="10"/>
<path d="M17.5142 416.391C189.488 254.849 321.683 185.219 425.056 160.24C491.015 144.289 541.645 148.157 590.503 155.146C623.447 159.846 653.066 166.692 682.923 174.65C768.307 197.347 830.536 220.775 954.321 215.845C983.74 214.5 1012.9 211.647 1041.45 207.32C1207.33 183.078 1373.82 114.105 1448.95 145.727" stroke="url(#paint17_linear_1_199)" stroke-opacity="0.65" stroke-width="4" stroke-miterlimit="10"/>
<path d="M28.0105 425.752C197.222 267.258 329.607 196.329 434.049 169.204C500.225 151.979 552.532 153.653 601.255 159.629C634.826 163.791 664.621 170.461 693.921 178.524C777.839 201.56 839.922 228.981 964.168 224.83C993.556 223.676 1022.67 220.806 1051.07 216.263C1217.54 190.572 1381.82 114.655 1459.99 143.177" stroke="url(#paint18_linear_1_199)" stroke-opacity="0.65" stroke-width="4" stroke-miterlimit="10"/>
<path d="M38.5256 435.121C205.203 279.745 337.575 207.446 443.035 178.075C509.478 159.561 563.437 159.013 612.023 163.947C646.298 167.439 676.117 174.066 704.937 182.261C787.362 205.607 849.3 237.036 974.032 233.736C1003.39 232.781 1032.47 229.892 1060.7 225.127C1227.74 197.944 1389.59 115.027 1471.04 140.52" stroke="url(#paint19_linear_1_199)" stroke-opacity="0.65" stroke-width="4" stroke-miterlimit="10"/>
<path d="M49.0818 444.455C213.099 292.198 345.559 218.615 451.961 186.968C518.646 167.196 574.231 164.396 622.682 168.333C657.659 171.17 687.554 177.723 715.842 185.993C796.826 209.664 858.619 245.114 983.81 242.622C1013.14 241.851 1042.2 238.944 1070.28 233.971C1237.75 205.181 1397.39 115.48 1482.06 137.887" stroke="url(#paint20_linear_1_199)" stroke-opacity="0.65" stroke-width="4" stroke-miterlimit="10"/>
<path d="M59.5383 453.825C321.407 211.76 507.513 165.02 633.519 172.738C771.073 181.161 824.131 253.808 993.742 251.57C1192.71 248.93 1390.47 112.661 1493.13 135.29" stroke="url(#paint21_linear_1_199)" stroke-opacity="0.65" stroke-width="4" stroke-miterlimit="10"/>
</g>
<defs>
<linearGradient id="paint0_linear_1_199" x1="548.256" y1="6.09145" x2="549.576" y2="253.525" gradientUnits="userSpaceOnUse">
<stop stop-color="#097CE4"/>
<stop offset="1" stop-color="#097CE4"/>
</linearGradient>
<linearGradient id="paint1_linear_1_199" x1="559.138" y1="15.4176" x2="560.46" y2="262.887" gradientUnits="userSpaceOnUse">
<stop stop-color="#097CE4"/>
<stop offset="1" stop-color="#097CE4"/>
</linearGradient>
<linearGradient id="paint2_linear_1_199" x1="569.933" y1="24.6882" x2="571.255" y2="272.237" gradientUnits="userSpaceOnUse">
<stop stop-color="#097CE4"/>
<stop offset="1" stop-color="#097CE4"/>
</linearGradient>
<linearGradient id="paint3_linear_1_199" x1="580.716" y1="33.8642" x2="582.039" y2="281.559" gradientUnits="userSpaceOnUse">
<stop stop-color="#097CE4"/>
<stop offset="1" stop-color="#097CE4"/>
</linearGradient>
<linearGradient id="paint4_linear_1_199" x1="591.613" y1="42.9461" x2="592.938" y2="290.94" gradientUnits="userSpaceOnUse">
<stop stop-color="#097CE4"/>
<stop offset="1" stop-color="#097CE4"/>
</linearGradient>
<linearGradient id="paint5_linear_1_199" x1="602.315" y1="51.8652" x2="603.642" y2="300.297" gradientUnits="userSpaceOnUse">
<stop stop-color="#097CE4"/>
<stop offset="1" stop-color="#097CE4"/>
</linearGradient>
<linearGradient id="paint6_linear_1_199" x1="613.179" y1="60.7173" x2="614.509" y2="309.659" gradientUnits="userSpaceOnUse">
<stop stop-color="#097CE4"/>
<stop offset="1" stop-color="#097CE4"/>
</linearGradient>
<linearGradient id="paint7_linear_1_199" x1="624.006" y1="69.5388" x2="625.338" y2="319.009" gradientUnits="userSpaceOnUse">
<stop stop-color="#097CE4"/>
<stop offset="1" stop-color="#097CE4"/>
</linearGradient>
<linearGradient id="paint8_linear_1_199" x1="634.824" y1="78.1337" x2="636.161" y2="328.361" gradientUnits="userSpaceOnUse">
<stop stop-color="#097CE4"/>
<stop offset="1" stop-color="#097CE4"/>
</linearGradient>
<linearGradient id="paint9_linear_1_199" x1="645.676" y1="86.6989" x2="647.017" y2="337.724" gradientUnits="userSpaceOnUse">
<stop stop-color="#097CE4"/>
<stop offset="1" stop-color="#097CE4"/>
</linearGradient>
<linearGradient id="paint10_linear_1_199" x1="656.42" y1="95.0527" x2="657.766" y2="347.072" gradientUnits="userSpaceOnUse">
<stop stop-color="#097CE4"/>
<stop offset="1" stop-color="#097CE4"/>
</linearGradient>
<linearGradient id="paint11_linear_1_199" x1="667.284" y1="103.27" x2="668.636" y2="356.437" gradientUnits="userSpaceOnUse">
<stop stop-color="#097CE4"/>
<stop offset="1" stop-color="#097CE4"/>
</linearGradient>
<linearGradient id="paint12_linear_1_199" x1="678.083" y1="111.311" x2="679.443" y2="365.795" gradientUnits="userSpaceOnUse">
<stop stop-color="#097CE4"/>
<stop offset="1" stop-color="#097CE4"/>
</linearGradient>
<linearGradient id="paint13_linear_1_199" x1="688.864" y1="119.166" x2="690.231" y2="375.151" gradientUnits="userSpaceOnUse">
<stop stop-color="#097CE4"/>
<stop offset="1" stop-color="#097CE4"/>
</linearGradient>
<linearGradient id="paint14_linear_1_199" x1="699.706" y1="126.773" x2="701.083" y2="384.494" gradientUnits="userSpaceOnUse">
<stop stop-color="#097CE4"/>
<stop offset="1" stop-color="#097CE4"/>
</linearGradient>
<linearGradient id="paint15_linear_1_199" x1="710.521" y1="134.126" x2="711.908" y2="393.851" gradientUnits="userSpaceOnUse">
<stop stop-color="#097CE4"/>
<stop offset="1" stop-color="#097CE4"/>
</linearGradient>
<linearGradient id="paint16_linear_1_199" x1="721.33" y1="141.193" x2="722.73" y2="403.21" gradientUnits="userSpaceOnUse">
<stop stop-color="#097CE4"/>
<stop offset="1" stop-color="#097CE4"/>
</linearGradient>
<linearGradient id="paint17_linear_1_199" x1="732.097" y1="141.145" x2="733.547" y2="412.566" gradientUnits="userSpaceOnUse">
<stop stop-color="#097CE4"/>
<stop offset="1" stop-color="#097CE4"/>
</linearGradient>
<linearGradient id="paint18_linear_1_199" x1="742.83" y1="140.469" x2="744.334" y2="421.925" gradientUnits="userSpaceOnUse">
<stop stop-color="#097CE4"/>
<stop offset="1" stop-color="#097CE4"/>
</linearGradient>
<linearGradient id="paint19_linear_1_199" x1="753.578" y1="139.352" x2="755.138" y2="431.292" gradientUnits="userSpaceOnUse">
<stop stop-color="#097CE4"/>
<stop offset="1" stop-color="#097CE4"/>
</linearGradient>
<linearGradient id="paint20_linear_1_199" x1="764.327" y1="138.002" x2="765.944" y2="440.625" gradientUnits="userSpaceOnUse">
<stop stop-color="#097CE4"/>
<stop offset="1" stop-color="#097CE4"/>
</linearGradient>
<linearGradient id="paint21_linear_1_199" x1="775.051" y1="136.455" x2="776.726" y2="449.993" gradientUnits="userSpaceOnUse">
<stop stop-color="#097CE4"/>
<stop offset="1" stop-color="#097CE4"/>
</linearGradient>
</defs>
</svg>
