<svg width="1288" height="652" viewBox="0 0 1288 652" fill="none" xmlns="http://www.w3.org/2000/svg">
<path d="M491.921 542.826H802.869M1.47116 14.671L1.47113 651.303M42.9309 14.671L42.9309 651.303M84.3906 14.671L84.3906 651.303M125.85 14.671L125.85 651.303M167.31 14.671L167.31 651.303M208.77 14.671L208.77 651.303M250.23 14.671L250.23 651.303M291.689 14.671L291.689 651.303M333.149 14.671L333.149 651.303M1 625.962H1286.25M374.609 14.671L374.609 651.303M1 586.839H1286.25M416.069 14.671L416.069 651.303M1 547.717H1286.25M457.528 14.671V651.303M1 508.594H1286.25M498.988 14.671L498.988 651.303M1 469.471H1286.25M540.448 14.671L540.448 651.303M1 430.349H1286.25M581.908 14.671L581.907 651.303M1 391.226H1286.25M623.367 14.671L623.367 651.303M1 352.104H1286.25M664.827 14.671L664.827 651.303M1 312.981H1286.25M706.287 14.671L706.287 651.303M1 273.858H1286.25M747.747 14.671L747.746 651.303M1 234.736H1286.25M789.206 14.671L789.206 651.303M1 195.613H1286.25M830.666 14.671L830.666 651.303M1 156.49H1286.25M872.126 14.671L872.126 651.303M1 117.368H1286.25M913.585 14.671L913.585 651.303M1 78.2452H1286.25M955.045 14.671L955.045 651.303M1 39.1226H1286.25M996.505 14.671V651.303M1 0L1286.25 0M1037.96 14.671V651.303M1079.42 14.671V651.303M1120.88 14.671V651.303M1162.34 14.671V651.303M1203.8 14.671V651.303M1245.26 14.671V651.303M1286.72 14.671V651.303" stroke="url(#paint0_radial_1_14)"/>
<defs>
<radialGradient id="paint0_radial_1_14" cx="0" cy="0" r="1" gradientUnits="userSpaceOnUse" gradientTransform="translate(643.862 287) rotate(90) scale(364.303 719.163)">
<stop stop-color="white" stop-opacity="0.12"/>
<stop offset="0.6" stop-color="white" stop-opacity="0"/>
</radialGradient>
</defs>
</svg>
