<svg width="193" height="130" viewBox="0 0 193 130" fill="none" xmlns="http://www.w3.org/2000/svg">
<path d="M179.48 35.7476L32.1408 80.6736L15.8838 103.913L179.48 35.7476Z" fill="#407BFF"/>
<path opacity="0.6" d="M179.48 35.7476L32.1408 80.6736L15.8838 103.913L179.48 35.7476Z" fill="white"/>
<path d="M179.365 35.7314L32.2409 80.4261L45.2002 108.256L179.365 35.7314Z" fill="#407BFF"/>
<path opacity="0.2" d="M179.365 35.7314L32.2409 80.4261L45.2002 108.256L179.365 35.7314Z" fill="black"/>
<path d="M31.5246 25.201L30.994 66.3777C30.981 67.4528 31.4115 68.5064 32.1909 69.3075C32.9704 70.1086 34.0353 70.5917 35.1519 70.6508L116.606 74.8482C117.722 74.9031 118.797 74.5304 119.596 73.8116C120.396 73.0927 120.854 72.0861 120.871 71.0118L121.409 29.834C121.419 28.7585 120.987 27.7051 120.207 26.9044C119.426 26.1038 118.361 25.621 117.244 25.5619L35.79 21.3645C34.673 21.3099 33.5972 21.6836 32.798 22.4038C31.9989 23.124 31.5415 24.1321 31.5259 25.2074L31.5246 25.201Z" fill="#407BFF"/>
<path opacity="0.4" d="M31.5246 25.201L30.994 66.3777C30.981 67.4528 31.4115 68.5064 32.1909 69.3075C32.9704 70.1086 34.0353 70.5917 35.1519 70.6508L116.606 74.8482C117.722 74.9031 118.797 74.5304 119.596 73.8116C120.396 73.0927 120.854 72.0861 120.871 71.0118L121.409 29.834C121.419 28.7585 120.987 27.7051 120.207 26.9044C119.426 26.1038 118.361 25.621 117.244 25.5619L35.79 21.3645C34.673 21.3099 33.5972 21.6836 32.798 22.4038C31.9989 23.124 31.5415 24.1321 31.5259 25.2074L31.5246 25.201Z" fill="black"/>
<path d="M32.9939 22.4317L65.5945 49.6551C68.6178 52.179 72.4014 53.6646 76.3195 53.8661C80.2375 54.0676 84.0552 52.9729 87.1411 50.7632L120.418 26.9264C119.647 26.1819 118.623 25.7373 117.555 25.683L35.8794 21.4878C34.8137 21.4336 33.7827 21.7709 32.9939 22.4317Z" fill="#407BFF"/>
<path d="M179.369 35.7319L60.3904 83.9759L45.2382 108.207L179.369 35.7319Z" fill="#407BFF"/>
<path opacity="0.6" d="M179.369 35.7319L60.3904 83.9759L45.2382 108.207L179.369 35.7319Z" fill="white"/>
<path d="M139.641 70.407L140.1 70.9119L127.665 80.8909L127.206 80.3861L139.641 70.407Z" fill="#407BFF"/>
<path d="M121.694 84.8015L122.152 85.3054L117.69 88.888L117.232 88.3841L121.694 84.8015Z" fill="#407BFF"/>
<path d="M179.291 35.7212L60.5073 83.7691L90.5999 108.458L179.291 35.7212Z" fill="#407BFF"/>
<path d="M25.2487 129.005C25.4168 128.979 25.577 128.923 25.7209 128.839L44.423 117.888C44.7218 117.71 44.9309 117.423 45.0048 117.088C45.0786 116.754 45.0112 116.4 44.8172 116.102C44.6232 115.805 44.3184 115.59 43.9694 115.502C43.6203 115.415 43.2553 115.464 42.9539 115.637L24.2452 126.589C23.9805 126.744 23.7839 126.985 23.6892 127.272C23.5946 127.558 23.6079 127.872 23.7269 128.158C23.8458 128.445 24.063 128.686 24.3408 128.84C24.6186 128.995 24.9397 129.053 25.2487 129.005Z" fill="#407BFF"/>
<path opacity="0.3" d="M25.2487 129.005C25.4168 128.979 25.577 128.923 25.7209 128.839L44.423 117.888C44.7218 117.71 44.9309 117.423 45.0048 117.088C45.0786 116.754 45.0112 116.4 44.8172 116.102C44.6232 115.805 44.3184 115.59 43.9694 115.502C43.6203 115.415 43.2553 115.464 42.9539 115.637L24.2452 126.589C23.9805 126.744 23.7839 126.985 23.6892 127.272C23.5946 127.558 23.6079 127.872 23.7269 128.158C23.8458 128.445 24.063 128.686 24.3408 128.84C24.6186 128.995 24.9397 129.053 25.2487 129.005Z" fill="black"/>
<path d="M24.2059 117.711C24.3719 117.684 24.5296 117.626 24.6699 117.54L34.7052 111.64C34.8556 111.553 34.9855 111.438 35.0875 111.301C35.1895 111.164 35.2616 111.008 35.2996 110.841C35.3376 110.674 35.3408 110.501 35.3089 110.33C35.2771 110.16 35.2108 109.996 35.114 109.848C35.0171 109.699 34.8917 109.57 34.7447 109.467C34.5978 109.364 34.4324 109.289 34.2579 109.246C34.0834 109.204 33.9034 109.195 33.7281 109.22C33.5529 109.245 33.3859 109.303 33.2368 109.392L23.1975 115.273C22.8965 115.448 22.6848 115.734 22.6088 116.069C22.5328 116.404 22.5988 116.759 22.7923 117.057C22.9365 117.29 23.1492 117.477 23.4019 117.594C23.6546 117.711 23.9351 117.752 24.2059 117.711Z" fill="#407BFF"/>
<path opacity="0.5" d="M24.2059 117.711C24.3719 117.684 24.5296 117.626 24.6699 117.54L34.7052 111.64C34.8556 111.553 34.9855 111.438 35.0875 111.301C35.1895 111.164 35.2616 111.008 35.2996 110.841C35.3376 110.674 35.3408 110.501 35.3089 110.33C35.2771 110.16 35.2108 109.996 35.114 109.848C35.0171 109.699 34.8917 109.57 34.7447 109.467C34.5978 109.364 34.4324 109.289 34.2579 109.246C34.0834 109.204 33.9034 109.195 33.7281 109.22C33.5529 109.245 33.3859 109.303 33.2368 109.392L23.1975 115.273C22.8965 115.448 22.6848 115.734 22.6088 116.069C22.5328 116.404 22.5988 116.759 22.7923 117.057C22.9365 117.29 23.1492 117.477 23.4019 117.594C23.6546 117.711 23.9351 117.752 24.2059 117.711Z" fill="white"/>
<path d="M49.4112 124.954C49.5765 124.927 49.7342 124.871 49.8769 124.789L68.1153 114.084C68.2658 113.997 68.3958 113.882 68.4979 113.744C68.6 113.607 68.6721 113.451 68.7102 113.284C68.7482 113.117 68.7514 112.944 68.7195 112.773C68.6876 112.602 68.6214 112.438 68.5245 112.29C68.4276 112.141 68.3021 112.012 68.1551 111.908C68.008 111.805 67.8425 111.73 67.6679 111.687C67.4933 111.645 67.3132 111.636 67.1379 111.661C66.9625 111.686 66.7954 111.745 66.6462 111.833L48.4025 122.513C48.1378 122.668 47.9412 122.909 47.8465 123.196C47.7519 123.482 47.7652 123.796 47.8842 124.082C48.0031 124.368 48.2203 124.61 48.4981 124.764C48.7759 124.919 49.097 124.977 49.4059 124.928L49.4112 124.954Z" fill="#407BFF"/>
<path opacity="0.3" d="M49.4112 124.954C49.5765 124.927 49.7342 124.871 49.8769 124.789L68.1153 114.084C68.2658 113.997 68.3958 113.882 68.4979 113.744C68.6 113.607 68.6721 113.451 68.7102 113.284C68.7482 113.117 68.7514 112.944 68.7195 112.773C68.6876 112.602 68.6214 112.438 68.5245 112.29C68.4276 112.141 68.3021 112.012 68.1551 111.908C68.008 111.805 67.8425 111.73 67.6679 111.687C67.4933 111.645 67.3132 111.636 67.1379 111.661C66.9625 111.686 66.7954 111.745 66.6462 111.833L48.4025 122.513C48.1378 122.668 47.9412 122.909 47.8465 123.196C47.7519 123.482 47.7652 123.796 47.8842 124.082C48.0031 124.368 48.2203 124.61 48.4981 124.764C48.7759 124.919 49.097 124.977 49.4059 124.928L49.4112 124.954Z" fill="black"/>
</svg>
