<svg width="18" height="12" viewBox="0 0 18 12" fill="none" xmlns="http://www.w3.org/2000/svg">
<path d="M7.65563 0.655547L6.21844 2.09273C5.78813 2.21086 5.38875 2.42742 5.05125 2.72555L4.30312 3.39211C4.01625 3.64805 3.64219 3.78867 3.25688 3.78867H2.7V7.38867C3.27375 7.40555 3.81938 7.63898 4.22719 8.0468L5.22844 9.04805L5.42531 9.24492L6.18469 10.0043C6.35906 10.1787 6.64594 10.1787 6.82031 10.0043C6.86812 9.95648 6.90469 9.90023 6.92437 9.84117C7.00312 9.62461 7.18594 9.46148 7.41094 9.41086C7.63594 9.36023 7.87219 9.42773 8.03531 9.59367L8.33906 9.8918C8.66531 10.218 9.19406 10.218 9.5175 9.8918C9.66937 9.73992 9.75094 9.54586 9.75937 9.34617C9.77063 9.09867 9.91687 8.8793 10.1419 8.77242C10.3669 8.66555 10.6284 8.68805 10.8281 8.83148C11.0925 9.01992 11.4609 8.99461 11.6972 8.75836C11.9616 8.49398 11.9616 8.06648 11.6972 7.80492L9.56531 5.67305L8.55844 6.60117C7.79062 7.30992 6.61219 7.32117 5.83031 6.62648C4.93875 5.83336 4.91906 4.44961 5.78531 3.63117L7.75687 1.7693C8.5275 1.04367 9.54562 0.638672 10.6059 0.638672C11.6213 0.638672 12.6028 1.01273 13.3594 1.68492L14.2059 2.43867H17.55C17.7975 2.43867 18 2.64117 18 2.88867V8.73867C18 9.23648 17.5978 9.63867 17.1 9.63867H16.2C15.8681 9.63867 15.5756 9.45867 15.4209 9.18867H13.0331C12.9375 9.37711 12.8109 9.55711 12.6534 9.71461C12.1725 10.1955 11.5059 10.384 10.8816 10.2799C10.7803 10.4852 10.6425 10.6765 10.4709 10.848C9.70312 11.6159 8.50219 11.6918 7.64719 11.0759C6.94125 11.6609 5.88937 11.6243 5.22844 10.9605L4.47187 10.2012L4.275 10.0043L3.27375 9.00305C3.11906 8.84836 2.91656 8.75836 2.7 8.74148C2.7 9.23648 2.295 9.63867 1.8 9.63867H0.9C0.402187 9.63867 0 9.23648 0 8.73867V2.88867C0 2.64117 0.2025 2.43867 0.45 2.43867H3.25688C3.31312 2.43867 3.36656 2.41898 3.40594 2.38242L4.15125 1.71867C4.93594 1.02398 5.94562 0.638672 6.99469 0.638672H7.28437C7.40812 0.638672 7.53469 0.644297 7.65563 0.655547ZM15.3 7.83867V3.78867H13.95C13.7841 3.78867 13.6237 3.7268 13.5028 3.61711L12.465 2.69461C11.9531 2.23898 11.2922 1.98867 10.6059 1.98867C9.89156 1.98867 9.20531 2.26148 8.685 2.75086L6.71344 4.61273C6.42375 4.88836 6.42937 5.35242 6.7275 5.6168C6.98906 5.85023 7.38563 5.84461 7.64156 5.60836L9.66375 3.74086C9.93656 3.48773 10.3641 3.50461 10.6172 3.78023C10.8703 4.05586 10.8534 4.48055 10.5778 4.73367L10.5553 4.75617L12.6478 6.84867C12.9291 7.12992 13.1119 7.47586 13.1934 7.83586H15.2972L15.3 7.83867ZM1.8 8.28867C1.8 8.16932 1.75259 8.05486 1.6682 7.97047C1.58381 7.88608 1.46935 7.83867 1.35 7.83867C1.23065 7.83867 1.11619 7.88608 1.0318 7.97047C0.947411 8.05486 0.9 8.16932 0.9 8.28867C0.9 8.40802 0.947411 8.52248 1.0318 8.60687C1.11619 8.69126 1.23065 8.73867 1.35 8.73867C1.46935 8.73867 1.58381 8.69126 1.6682 8.60687C1.75259 8.52248 1.8 8.40802 1.8 8.28867ZM16.65 8.73867C16.7693 8.73867 16.8838 8.69126 16.9682 8.60687C17.0526 8.52248 17.1 8.40802 17.1 8.28867C17.1 8.16932 17.0526 8.05486 16.9682 7.97047C16.8838 7.88608 16.7693 7.83867 16.65 7.83867C16.5307 7.83867 16.4162 7.88608 16.3318 7.97047C16.2474 8.05486 16.2 8.16932 16.2 8.28867C16.2 8.40802 16.2474 8.52248 16.3318 8.60687C16.4162 8.69126 16.5307 8.73867 16.65 8.73867Z" fill="#DEF0FF"/>
</svg>
